<?xml version="1.0" encoding="UTF-8"?>
<svg xmlns="http://www.w3.org/2000/svg" xmlns:xlink="http://www.w3.org/1999/xlink" width="44px" height="44px" viewBox="0 0 44 44" version="1.1">
<defs>
<radialGradient id="radial0" gradientUnits="userSpaceOnUse" cx="32" cy="31.5" fx="32" fy="31.5" r="31.259" spreadMethod="reflect" gradientTransform="matrix(0.6875,0,0,0.6875,0,0)">
<stop offset="0" style="stop-color:rgb(77.254902%,94.509804%,100%);stop-opacity:1;"/>
<stop offset="0.3505" style="stop-color:rgb(80.392157%,95.294118%,100%);stop-opacity:1;"/>
<stop offset="0.9073" style="stop-color:rgb(89.411765%,98.039216%,100%);stop-opacity:1;"/>
<stop offset="1" style="stop-color:rgb(91.372549%,98.431373%,100%);stop-opacity:1;"/>
</radialGradient>
<linearGradient id="linear0" gradientUnits="userSpaceOnUse" x1="32" y1="59.381" x2="32" y2="15.381" spreadMethod="reflect" gradientTransform="matrix(0.6875,0,0,0.6875,0,0)">
<stop offset="0" style="stop-color:rgb(8.235294%,36.078431%,87.058824%);stop-opacity:1;"/>
<stop offset="0.2782" style="stop-color:rgb(12.156863%,49.803922%,89.803922%);stop-opacity:1;"/>
<stop offset="0.5693" style="stop-color:rgb(15.294118%,61.176471%,92.156863%);stop-opacity:1;"/>
<stop offset="0.8201" style="stop-color:rgb(17.254902%,68.627451%,93.72549%);stop-opacity:1;"/>
<stop offset="1" style="stop-color:rgb(18.039216%,70.980392%,94.117647%);stop-opacity:1;"/>
</linearGradient>
</defs>
<g id="surface1">
<path style=" stroke:none;fill-rule:nonzero;fill:url(#radial0);" d="M 39.875 37.125 C 39.117188 37.125 38.5 36.507812 38.5 35.75 C 38.5 34.992188 39.117188 34.375 39.875 34.375 L 41.59375 34.375 C 42.917969 34.375 44 33.292969 44 31.96875 C 44 30.644531 42.917969 29.5625 41.59375 29.5625 L 34.375 29.5625 C 33.425781 29.5625 32.65625 28.792969 32.65625 27.84375 C 32.65625 26.894531 33.425781 26.125 34.375 26.125 L 39.875 26.125 C 41.007812 26.125 41.9375 25.195312 41.9375 24.0625 C 41.9375 22.929688 41.007812 22 39.875 22 L 28.875 22 L 28.875 17.875 L 41.25 17.875 C 42.855469 17.875 44.152344 16.480469 43.984375 14.84375 C 43.84375 13.414062 42.554688 12.375 41.121094 12.375 L 39.875 12.375 C 39.117188 12.375 38.5 11.757812 38.5 11 C 38.5 10.242188 39.117188 9.625 39.875 9.625 L 40.121094 9.625 C 41.019531 9.625 41.839844 8.976562 41.929688 8.082031 C 42.03125 7.054688 41.226562 6.1875 40.21875 6.1875 L 30.59375 6.1875 C 30.023438 6.1875 29.5625 5.726562 29.5625 5.15625 C 29.5625 4.585938 30.023438 4.125 30.59375 4.125 L 33.246094 4.125 C 34.144531 4.125 34.964844 3.476562 35.054688 2.582031 C 35.15625 1.554688 34.351562 0.6875 33.34375 0.6875 L 10.753906 0.6875 C 9.855469 0.6875 9.035156 1.335938 8.945312 2.230469 C 8.84375 3.257812 9.648438 4.125 10.65625 4.125 L 13.0625 4.125 C 13.820312 4.125 14.4375 4.742188 14.4375 5.5 C 14.4375 6.257812 13.820312 6.875 13.0625 6.875 L 4.253906 6.875 C 2.820312 6.875 1.535156 7.914062 1.390625 9.34375 C 1.222656 10.980469 2.519531 12.375 4.125 12.375 L 5.84375 12.375 C 7.171875 12.375 8.25 13.453125 8.25 14.78125 C 8.25 16.109375 7.171875 17.1875 5.84375 17.1875 L 3.566406 17.1875 C 2.132812 17.1875 0.847656 18.226562 0.703125 19.65625 C 0.535156 21.292969 1.832031 22.6875 3.4375 22.6875 L 15.125 22.6875 L 15.125 30.25 L 4.125 30.25 C 2.992188 30.25 2.0625 31.179688 2.0625 32.3125 C 2.0625 33.445312 2.992188 34.375 4.125 34.375 C 4.882812 34.375 5.5 34.992188 5.5 35.75 C 5.5 36.507812 4.882812 37.125 4.125 37.125 L 2.878906 37.125 C 1.445312 37.125 0.160156 38.164062 0.015625 39.59375 C -0.152344 41.230469 1.144531 42.625 2.75 42.625 L 39.746094 42.625 C 41.179688 42.625 42.464844 41.585938 42.609375 40.15625 C 42.777344 38.519531 41.480469 37.125 39.875 37.125 Z M 39.875 37.125 "/>
<path style=" stroke:none;fill-rule:nonzero;fill:url(#linear0);" d="M 34.375 8.25 L 9.625 8.25 C 8.105469 8.25 6.875 9.480469 6.875 11 L 6.875 35.75 C 6.875 37.269531 8.105469 38.5 9.625 38.5 L 34.375 38.5 C 35.894531 38.5 37.125 37.269531 37.125 35.75 L 37.125 11 C 37.125 9.480469 35.894531 8.25 34.375 8.25 Z M 34.375 8.25 "/>
<path style=" stroke:none;fill-rule:nonzero;fill:rgb(100%,100%,100%);fill-opacity:1;" d="M 13.0625 19.25 L 14.4375 19.25 C 15.195312 19.25 15.8125 19.867188 15.8125 20.625 L 15.8125 32.3125 C 15.8125 33.070312 15.195312 33.6875 14.4375 33.6875 L 13.0625 33.6875 C 12.304688 33.6875 11.6875 33.070312 11.6875 32.3125 L 11.6875 20.625 C 11.6875 19.867188 12.304688 19.25 13.0625 19.25 Z M 13.0625 19.25 "/>
<path style=" stroke:none;fill-rule:nonzero;fill:rgb(100%,100%,100%);fill-opacity:1;" d="M 13.738281 17.1875 L 13.714844 17.1875 C 12.484375 17.1875 11.6875 16.269531 11.6875 15.125 C 11.6875 13.953125 12.507812 13.0625 13.761719 13.0625 C 15.015625 13.0625 15.789062 13.953125 15.8125 15.125 C 15.8125 16.269531 15.015625 17.1875 13.738281 17.1875 Z M 13.738281 17.1875 "/>
<path style=" stroke:none;fill-rule:nonzero;fill:rgb(100%,100%,100%);fill-opacity:1;" d="M 30.9375 33.6875 L 29.5625 33.6875 C 28.804688 33.6875 28.1875 33.070312 28.1875 32.3125 L 28.1875 25.871094 C 28.1875 23.980469 27.152344 22.691406 25.273438 22.691406 C 23.929688 22.691406 23.121094 23.558594 22.78125 24.398438 C 22.65625 24.703125 22.6875 25.535156 22.6875 25.953125 L 22.6875 32.3125 C 22.6875 33.070312 22.078125 33.6875 21.316406 33.6875 L 19.9375 33.6875 C 19.179688 33.6875 18.5625 33.070312 18.5625 32.3125 L 18.5625 20.625 C 18.5625 19.867188 19.179688 19.25 19.9375 19.25 L 21.316406 19.25 C 22.078125 19.25 22.691406 19.867188 22.691406 20.625 L 22.691406 21.328125 C 23.3125 20.367188 24.449219 19.25 26.929688 19.25 C 30.007812 19.25 32.3125 21.011719 32.3125 25.328125 L 32.3125 32.3125 C 32.3125 33.070312 31.695312 33.6875 30.9375 33.6875 Z M 30.9375 33.6875 "/>
</g>
</svg>
