<?xml version="1.0" encoding="UTF-8"?>
<svg xmlns="http://www.w3.org/2000/svg" xmlns:xlink="http://www.w3.org/1999/xlink" width="44px" height="44px" viewBox="0 0 44 44" version="1.1">
<defs>
<linearGradient id="linear0" gradientUnits="userSpaceOnUse" x1="24" y1="42" x2="24" y2="6.2068" gradientTransform="matrix(0.916667,0,0,0.916667,0,0)">
<stop offset="0" style="stop-color:rgb(10.196078%,78.431373%,98.823529%);stop-opacity:1;"/>
<stop offset="0.2583" style="stop-color:rgb(10.588235%,71.372549%,98.039216%);stop-opacity:1;"/>
<stop offset="0.7755" style="stop-color:rgb(10.980392%,52.54902%,96.078431%);stop-opacity:1;"/>
<stop offset="1" style="stop-color:rgb(11.372549%,43.921569%,94.901961%);stop-opacity:1;"/>
</linearGradient>
<filter id="alpha" filterUnits="objectBoundingBox" x="0%" y="0%" width="100%" height="100%">
  <feColorMatrix type="matrix" in="SourceGraphic" values="0 0 0 0 1 0 0 0 0 1 0 0 0 0 1 0 0 0 1 0"/>
</filter>
<mask id="mask0">
  <g filter="url(#alpha)">
<rect x="0" y="0" width="44" height="44" style="fill:rgb(0%,0%,0%);fill-opacity:0.0509804;stroke:none;"/>
  </g>
</mask>
<clipPath id="clip1">
  <rect x="0" y="0" width="44" height="44"/>
</clipPath>
<g id="surface5" clip-path="url(#clip1)">
<path style=" stroke:none;fill-rule:nonzero;fill:rgb(0%,0%,0%);fill-opacity:1;" d="M 31.167969 14.667969 C 31.328125 14.667969 31.484375 14.695312 31.636719 14.734375 L 24.464844 21.90625 C 23.785156 22.585938 22.890625 22.925781 22 22.925781 C 21.109375 22.925781 20.214844 22.585938 19.535156 21.90625 L 12.363281 14.734375 C 12.515625 14.695312 12.671875 14.667969 12.832031 14.667969 L 31.167969 14.667969 M 32.933594 16.03125 C 32.972656 16.183594 33 16.335938 33 16.5 L 33 27.5 C 33 27.664062 32.972656 27.816406 32.933594 27.96875 L 26.960938 22 L 32.933594 16.03125 M 11.066406 16.03125 L 17.039062 22 L 11.070312 27.96875 C 11.027344 27.816406 11 27.664062 11 27.5 L 11 16.5 C 11 16.335938 11.027344 16.183594 11.066406 16.03125 M 25.65625 23.285156 L 31.636719 29.265625 C 31.484375 29.304688 31.328125 29.332031 31.167969 29.332031 L 12.832031 29.332031 C 12.671875 29.332031 12.515625 29.304688 12.363281 29.265625 L 18.34375 23.285156 C 19.367188 24.261719 20.679688 24.757812 22 24.757812 C 23.320312 24.757812 24.632812 24.261719 25.65625 23.285156 M 31.167969 13.75 L 12.832031 13.75 C 12.609375 13.75 12.378906 13.78125 12.128906 13.847656 C 11.8125 13.933594 11.566406 14.179688 11.480469 14.496094 C 11.394531 14.808594 11.480469 15.140625 11.707031 15.375 C 11.535156 15.207031 11.304688 15.113281 11.066406 15.113281 C 10.988281 15.113281 10.910156 15.125 10.828125 15.144531 C 10.511719 15.230469 10.265625 15.476562 10.179688 15.796875 C 10.117188 16.046875 10.082031 16.277344 10.082031 16.5 L 10.082031 27.5 C 10.082031 27.722656 10.117188 27.953125 10.183594 28.203125 C 10.265625 28.519531 10.511719 28.769531 10.832031 28.855469 C 10.910156 28.875 10.988281 28.886719 11.070312 28.886719 C 11.304688 28.886719 11.535156 28.792969 11.707031 28.625 C 11.480469 28.859375 11.394531 29.191406 11.480469 29.503906 C 11.566406 29.820312 11.8125 30.066406 12.128906 30.152344 C 12.378906 30.21875 12.609375 30.25 12.832031 30.25 L 31.167969 30.25 C 31.390625 30.25 31.621094 30.21875 31.871094 30.152344 C 32.1875 30.066406 32.433594 29.820312 32.519531 29.503906 C 32.605469 29.191406 32.519531 28.859375 32.292969 28.625 C 32.464844 28.792969 32.695312 28.886719 32.929688 28.886719 C 33.011719 28.886719 33.089844 28.875 33.167969 28.855469 C 33.484375 28.769531 33.734375 28.519531 33.816406 28.203125 C 33.882812 27.953125 33.917969 27.722656 33.917969 27.5 L 33.917969 16.5 C 33.917969 16.277344 33.882812 16.046875 33.816406 15.796875 C 33.734375 15.480469 33.488281 15.230469 33.167969 15.144531 C 33.089844 15.125 33.011719 15.113281 32.929688 15.113281 C 32.695312 15.113281 32.464844 15.207031 32.292969 15.375 C 32.515625 15.140625 32.605469 14.808594 32.519531 14.496094 C 32.433594 14.179688 32.1875 13.933594 31.871094 13.847656 C 31.621094 13.78125 31.390625 13.75 31.167969 13.75 Z M 31.167969 13.75 "/>
</g>
<mask id="mask1">
  <g filter="url(#alpha)">
<rect x="0" y="0" width="44" height="44" style="fill:rgb(0%,0%,0%);fill-opacity:0.0705882;stroke:none;"/>
  </g>
</mask>
<clipPath id="clip2">
  <rect x="0" y="0" width="44" height="44"/>
</clipPath>
<g id="surface8" clip-path="url(#clip2)">
<path style=" stroke:none;fill-rule:nonzero;fill:rgb(0%,0%,0%);fill-opacity:1;" d="M 31.167969 14.207031 L 12.832031 14.207031 C 12.648438 14.207031 12.460938 14.234375 12.246094 14.292969 C 12.089844 14.332031 11.964844 14.457031 11.921875 14.617188 C 11.878906 14.773438 11.925781 14.941406 12.039062 15.058594 L 19.210938 22.230469 C 19.957031 22.972656 20.945312 23.382812 22 23.382812 C 23.054688 23.382812 24.042969 22.972656 24.789062 22.230469 L 31.960938 15.058594 C 32.074219 14.945312 32.121094 14.773438 32.078125 14.617188 C 32.035156 14.457031 31.910156 14.335938 31.753906 14.292969 C 31.539062 14.234375 31.351562 14.207031 31.167969 14.207031 Z M 32.933594 15.574219 C 32.8125 15.574219 32.695312 15.617188 32.609375 15.707031 L 26.640625 21.675781 C 26.460938 21.855469 26.460938 22.144531 26.640625 22.324219 L 32.609375 28.292969 C 32.695312 28.378906 32.8125 28.425781 32.933594 28.425781 C 32.972656 28.425781 33.011719 28.421875 33.050781 28.410156 C 33.210938 28.367188 33.332031 28.242188 33.375 28.085938 C 33.433594 27.871094 33.457031 27.6875 33.457031 27.5 L 33.457031 16.5 C 33.457031 16.3125 33.433594 16.128906 33.375 15.914062 C 33.332031 15.753906 33.210938 15.632812 33.050781 15.589844 C 33.011719 15.578125 32.972656 15.574219 32.933594 15.574219 Z M 11.066406 15.574219 C 11.027344 15.574219 10.988281 15.578125 10.949219 15.589844 C 10.789062 15.628906 10.667969 15.753906 10.625 15.914062 C 10.566406 16.128906 10.542969 16.3125 10.542969 16.5 L 10.542969 27.5 C 10.542969 27.6875 10.566406 27.871094 10.625 28.085938 C 10.667969 28.246094 10.789062 28.367188 10.949219 28.410156 C 10.988281 28.421875 11.027344 28.425781 11.066406 28.425781 C 11.1875 28.425781 11.304688 28.378906 11.390625 28.292969 L 17.359375 22.324219 C 17.539062 22.144531 17.539062 21.855469 17.359375 21.675781 L 11.390625 15.707031 C 11.304688 15.621094 11.1875 15.574219 11.066406 15.574219 Z M 25.65625 22.828125 C 25.542969 22.828125 25.429688 22.871094 25.339844 22.957031 C 24.429688 23.824219 23.242188 24.300781 22 24.300781 C 20.757812 24.300781 19.570312 23.824219 18.660156 22.957031 C 18.570312 22.871094 18.457031 22.828125 18.34375 22.828125 C 18.226562 22.828125 18.109375 22.875 18.019531 22.960938 L 12.039062 28.941406 C 11.925781 29.054688 11.878906 29.226562 11.921875 29.382812 C 11.964844 29.542969 12.089844 29.664062 12.246094 29.707031 C 12.460938 29.765625 12.648438 29.792969 12.832031 29.792969 L 31.167969 29.792969 C 31.351562 29.792969 31.539062 29.765625 31.753906 29.707031 C 31.910156 29.667969 32.035156 29.542969 32.078125 29.382812 C 32.121094 29.226562 32.074219 29.058594 31.960938 28.941406 L 25.980469 22.964844 C 25.890625 22.875 25.773438 22.828125 25.65625 22.828125 Z M 25.65625 22.828125 "/>
</g>
</defs>
<g id="surface1">
<path style=" stroke:none;fill-rule:nonzero;fill:url(#linear0);" d="M 31.167969 38.5 L 12.832031 38.5 C 8.789062 38.5 5.5 35.210938 5.5 31.167969 L 5.5 12.832031 C 5.5 8.789062 8.789062 5.5 12.832031 5.5 L 31.167969 5.5 C 35.210938 5.5 38.5 8.789062 38.5 12.832031 L 38.5 31.167969 C 38.5 35.210938 35.210938 38.5 31.167969 38.5 Z M 31.167969 38.5 "/>
<use xlink:href="#surface5" mask="url(#mask0)"/>
<use xlink:href="#surface8" mask="url(#mask1)"/>
<path style=" stroke:none;fill-rule:nonzero;fill:rgb(97.647059%,97.647059%,97.647059%);fill-opacity:1;" d="M 32.933594 16.03125 L 26.960938 22 L 32.929688 27.96875 C 32.972656 27.816406 33 27.664062 33 27.5 L 33 16.5 C 33 16.335938 32.972656 16.183594 32.933594 16.03125 Z M 24.464844 21.90625 L 31.636719 14.734375 C 31.484375 14.695312 31.328125 14.667969 31.167969 14.667969 L 12.832031 14.667969 C 12.671875 14.667969 12.515625 14.695312 12.363281 14.734375 L 19.535156 21.90625 C 20.894531 23.265625 23.105469 23.265625 24.464844 21.90625 Z M 11.066406 16.03125 C 11.027344 16.183594 11 16.335938 11 16.5 L 11 27.5 C 11 27.664062 11.027344 27.816406 11.066406 27.96875 L 17.039062 22 Z M 22 24.757812 C 20.679688 24.757812 19.367188 24.261719 18.34375 23.285156 L 12.363281 29.265625 C 12.515625 29.304688 12.671875 29.332031 12.832031 29.332031 L 31.167969 29.332031 C 31.328125 29.332031 31.484375 29.304688 31.636719 29.265625 L 25.65625 23.285156 C 24.632812 24.261719 23.320312 24.757812 22 24.757812 Z M 22 24.757812 "/>
</g>
</svg>
