<?xml version="1.0" encoding="UTF-8"?>
<svg xmlns="http://www.w3.org/2000/svg" xmlns:xlink="http://www.w3.org/1999/xlink" width="44px" height="44px" viewBox="0 0 44 44" version="1.1">
<defs>
<linearGradient id="linear0" gradientUnits="userSpaceOnUse" x1="10.3414" y1="8.3121" x2="40.798" y2="38.7687" gradientTransform="matrix(0.916667,0,0,0.916667,0,0)">
<stop offset="0" style="stop-color:rgb(16.470588%,64.313725%,95.686275%);stop-opacity:1;"/>
<stop offset="1" style="stop-color:rgb(0%,47.843137%,85.098039%);stop-opacity:1;"/>
</linearGradient>
</defs>
<g id="surface1">
<path style=" stroke:none;fill-rule:nonzero;fill:url(#linear0);" d="M 42.261719 10.101562 C 40.84375 10.730469 39.3125 11.148438 37.699219 11.351562 C 39.335938 10.375 40.601562 8.824219 41.191406 6.988281 C 39.660156 7.886719 37.960938 8.546875 36.152344 8.898438 C 34.703125 7.367188 32.644531 6.417969 30.359375 6.417969 C 25.976562 6.417969 22.421875 9.941406 22.421875 14.285156 C 22.421875 14.898438 22.492188 15.496094 22.628906 16.078125 C 16.035156 15.75 10.183594 12.609375 6.269531 7.851562 C 5.582031 9.015625 5.191406 10.375 5.191406 11.8125 C 5.191406 14.546875 6.59375 16.949219 8.722656 18.367188 C 7.421875 18.328125 6.199219 17.964844 5.125 17.382812 C 5.125 17.40625 5.125 17.441406 5.125 17.472656 C 5.125 21.289062 7.863281 24.46875 11.492188 25.195312 C 10.828125 25.375 10.125 25.472656 9.402344 25.472656 C 8.890625 25.472656 8.394531 25.414062 7.910156 25.328125 C 8.917969 28.449219 11.847656 30.730469 15.320312 30.796875 C 12.605469 32.902344 9.179688 34.164062 5.460938 34.164062 C 4.820312 34.164062 4.1875 34.128906 3.570312 34.054688 C 7.085938 36.28125 11.257812 37.582031 15.742188 37.582031 C 30.339844 37.582031 38.328125 25.59375 38.328125 15.191406 C 38.328125 14.851562 38.316406 14.511719 38.300781 14.175781 C 39.859375 13.078125 41.203125 11.6875 42.261719 10.101562 "/>
</g>
</svg>
