<?xml version="1.0" encoding="UTF-8"?>
<svg xmlns="http://www.w3.org/2000/svg" xmlns:xlink="http://www.w3.org/1999/xlink" width="44px" height="44px" viewBox="0 0 44 44" version="1.1">
<g id="surface1">
<path style=" stroke:none;fill-rule:nonzero;fill:rgb(1.176471%,60.784314%,89.803922%);fill-opacity:1;" d="M 22 4.582031 C 12.382812 4.582031 4.582031 12.382812 4.582031 22 C 4.582031 31.617188 12.382812 39.417969 22 39.417969 C 31.617188 39.417969 39.417969 31.617188 39.417969 22 C 39.417969 12.382812 31.617188 4.582031 22 4.582031 Z M 22 4.582031 "/>
<path style=" stroke:none;fill-rule:nonzero;fill:rgb(100%,100%,100%);fill-opacity:1;" d="M 24.359375 26.613281 L 28.863281 26.613281 L 29.574219 22.035156 L 24.359375 22.035156 L 24.359375 19.535156 C 24.359375 17.632812 24.976562 15.949219 26.757812 15.949219 L 29.617188 15.949219 L 29.617188 11.949219 C 29.117188 11.886719 28.050781 11.734375 26.042969 11.734375 C 21.855469 11.734375 19.394531 13.949219 19.394531 18.992188 L 19.394531 22.035156 L 15.089844 22.035156 L 15.089844 26.613281 L 19.394531 26.613281 L 19.394531 39.203125 C 20.25 39.332031 21.113281 39.417969 22 39.417969 C 22.800781 39.417969 23.582031 39.339844 24.359375 39.238281 Z M 24.359375 26.613281 "/>
</g>
</svg>
