<?xml version="1.0" encoding="UTF-8"?>
<svg xmlns="http://www.w3.org/2000/svg" xmlns:xlink="http://www.w3.org/1999/xlink" width="44px" height="44px" viewBox="0 0 44 44" version="1.1">
<defs>
<linearGradient id="linear0" gradientUnits="userSpaceOnUse" x1="9.8581" y1="9.8581" x2="38.1419" y2="38.1419" gradientTransform="matrix(0.916667,0,0,0.916667,0,0)">
<stop offset="0" style="stop-color:rgb(20%,74.509804%,94.117647%);stop-opacity:1;"/>
<stop offset="1" style="stop-color:rgb(3.921569%,52.156863%,85.098039%);stop-opacity:1;"/>
</linearGradient>
<filter id="alpha" filterUnits="objectBoundingBox" x="0%" y="0%" width="100%" height="100%">
  <feColorMatrix type="matrix" in="SourceGraphic" values="0 0 0 0 1 0 0 0 0 1 0 0 0 0 1 0 0 0 1 0"/>
</filter>
<mask id="mask0">
  <g filter="url(#alpha)">
<rect x="0" y="0" width="44" height="44" style="fill:rgb(0%,0%,0%);fill-opacity:0.0509804;stroke:none;"/>
  </g>
</mask>
<clipPath id="clip1">
  <rect x="0" y="0" width="44" height="44"/>
</clipPath>
<g id="surface5" clip-path="url(#clip1)">
<path style=" stroke:none;fill-rule:nonzero;fill:rgb(0%,0%,0%);fill-opacity:1;" d="M 9.277344 21.511719 C 16.75 18.125 25.53125 14.449219 26.882812 13.917969 C 29.863281 12.746094 31.164062 13.941406 30.960938 15.855469 C 30.710938 18.195312 29.523438 25.011719 28.792969 29.894531 C 28.367188 32.75 26.820312 33.628906 25.074219 32.519531 C 23.75 31.679688 19.195312 28.695312 17.996094 27.675781 C 17.179688 26.980469 16.609375 26.203125 17.191406 25.410156 C 17.359375 25.175781 17.792969 24.710938 18.035156 24.476562 C 19.242188 23.304688 19.082031 23.054688 17.617188 24.097656 C 17.445312 24.222656 16.433594 24.957031 16.019531 25.234375 C 15 25.910156 14.066406 25.949219 12.480469 25.410156 C 11.179688 24.96875 9.933594 24.628906 9.148438 24.289062 C 8.0625 23.816406 7.644531 22.25 9.277344 21.511719 Z M 9.277344 21.511719 "/>
</g>
<mask id="mask1">
  <g filter="url(#alpha)">
<rect x="0" y="0" width="44" height="44" style="fill:rgb(0%,0%,0%);fill-opacity:0.0705882;stroke:none;"/>
  </g>
</mask>
<clipPath id="clip2">
  <rect x="0" y="0" width="44" height="44"/>
</clipPath>
<g id="surface8" clip-path="url(#clip2)">
<path style=" stroke:none;fill-rule:nonzero;fill:rgb(0%,0%,0%);fill-opacity:1;" d="M 9.933594 21.625 C 16.875 18.523438 25.410156 14.964844 26.660156 14.464844 C 29.652344 13.253906 30.75 13.972656 30.429688 16.304688 C 30.128906 18.46875 29.070312 25.15625 28.328125 29.640625 C 27.886719 32.277344 26.609375 32.859375 24.941406 31.78125 C 23.898438 31.109375 19.695312 28.339844 18.675781 27.535156 C 17.890625 26.914062 17.070312 26.195312 18.027344 25.152344 C 18.34375 24.804688 20.105469 23.105469 21.425781 21.839844 C 22.1875 21.105469 21.914062 20.746094 20.996094 21.375 C 19.304688 22.53125 16.542969 24.363281 16.046875 24.699219 C 15.109375 25.332031 14.226562 25.480469 12.6875 25 C 11.476562 24.617188 10.308594 24.25 9.699219 24.011719 C 8.335938 23.484375 8.320312 22.347656 9.933594 21.625 Z M 9.933594 21.625 "/>
</g>
</defs>
<g id="surface1">
<path style=" stroke:none;fill-rule:nonzero;fill:url(#linear0);" d="M 40.332031 22 C 40.332031 32.125 32.125 40.332031 22 40.332031 C 11.875 40.332031 3.667969 32.125 3.667969 22 C 3.667969 11.875 11.875 3.667969 22 3.667969 C 32.125 3.667969 40.332031 11.875 40.332031 22 Z M 40.332031 22 "/>
<use xlink:href="#surface5" mask="url(#mask0)"/>
<use xlink:href="#surface8" mask="url(#mask1)"/>
<path style=" stroke:none;fill-rule:nonzero;fill:rgb(100%,100%,100%);fill-opacity:1;" d="M 10.589844 21.742188 C 16.996094 18.921875 25.289062 15.484375 26.433594 15.007812 C 29.4375 13.765625 30.355469 14.003906 29.898438 16.761719 C 29.566406 18.742188 28.617188 25.304688 27.859375 29.386719 C 27.40625 31.808594 26.398438 32.09375 24.808594 31.046875 C 24.046875 30.542969 20.191406 27.992188 19.355469 27.394531 C 18.589844 26.851562 17.539062 26.195312 18.859375 24.902344 C 19.328125 24.441406 22.410156 21.5 24.808594 19.207031 C 25.125 18.90625 24.730469 18.414062 24.367188 18.65625 C 21.132812 20.800781 16.644531 23.777344 16.074219 24.167969 C 15.210938 24.753906 14.382812 25.019531 12.894531 24.59375 C 11.773438 24.273438 10.675781 23.886719 10.246094 23.738281 C 8.601562 23.175781 8.992188 22.445312 10.589844 21.742188 Z M 10.589844 21.742188 "/>
</g>
</svg>
